<svg id="svg" version="1.1" xmlns="http://www.w3.org/2000/svg" xmlns:xlink="http://www.w3.org/1999/xlink" width="400" height="180" viewBox="0, 0, 400,180"><g id="svgg"><path id="path0" d="M63.584 29.945 C 63.269 30.178,63.049 30.406,63.096 30.453 C 63.143 30.500,62.860 30.775,62.468 31.066 C 62.076 31.356,61.753 31.694,61.750 31.818 C 61.748 31.942,61.649 32.043,61.531 32.043 C 61.256 32.043,58.739 34.619,58.146 35.507 C 57.898 35.878,57.641 36.182,57.575 36.182 C 57.508 36.183,56.860 36.761,56.135 37.466 C 54.306 39.244,54.183 39.315,53.537 38.978 C 53.250 38.829,52.830 38.706,52.604 38.705 C 52.379 38.704,51.903 38.582,51.547 38.434 C 51.192 38.285,50.714 38.164,50.486 38.164 C 50.258 38.164,49.943 38.037,49.788 37.881 C 49.632 37.725,49.505 37.647,49.505 37.707 C 49.505 37.767,49.349 37.733,49.159 37.632 C 48.908 37.497,48.789 37.508,48.723 37.670 C 48.652 37.846,48.598 37.845,48.469 37.663 C 48.379 37.536,48.171 37.483,48.005 37.547 C 47.840 37.610,47.705 37.583,47.705 37.486 C 47.705 37.308,46.122 36.784,45.841 36.870 C 45.756 36.895,45.594 36.843,45.481 36.753 C 45.367 36.663,44.891 36.534,44.422 36.466 C 43.952 36.398,43.451 36.224,43.306 36.080 C 43.162 35.935,42.978 35.828,42.899 35.842 C 42.819 35.855,42.714 35.851,42.664 35.832 C 42.615 35.812,42.372 35.763,42.124 35.721 C 41.877 35.679,41.349 35.523,40.952 35.375 C 40.555 35.228,40.008 35.088,39.737 35.066 C 39.466 35.043,39.244 34.962,39.244 34.884 C 39.244 34.807,39.015 34.743,38.736 34.743 C 38.222 34.743,36.530 34.239,36.364 34.036 C 35.857 33.417,33.464 33.409,33.432 34.026 C 33.417 34.311,33.932 35.430,34.046 35.360 C 34.121 35.313,34.318 35.561,34.484 35.909 C 34.649 36.258,34.870 36.544,34.974 36.544 C 35.078 36.544,35.111 36.597,35.046 36.661 C 34.981 36.726,35.168 36.955,35.460 37.171 C 35.880 37.481,35.946 37.611,35.773 37.787 C 35.622 37.939,35.618 37.991,35.759 37.952 C 36.043 37.872,36.756 38.720,36.646 39.006 C 36.597 39.135,36.614 39.220,36.685 39.197 C 36.756 39.173,36.814 39.220,36.814 39.302 C 36.814 39.383,36.949 39.525,37.115 39.618 C 37.280 39.710,37.469 40.029,37.534 40.325 C 37.599 40.622,37.727 40.864,37.818 40.864 C 37.909 40.864,37.984 40.976,37.984 41.112 C 37.984 41.249,38.166 41.495,38.389 41.661 C 38.612 41.826,38.672 41.910,38.524 41.849 C 38.375 41.787,38.437 41.898,38.660 42.095 C 38.937 42.340,38.994 42.480,38.840 42.537 C 38.716 42.582,38.837 42.679,39.109 42.752 C 39.381 42.824,39.604 42.990,39.604 43.121 C 39.604 43.252,39.733 43.488,39.891 43.646 C 40.050 43.804,40.133 44.053,40.077 44.199 C 40.016 44.358,40.080 44.464,40.236 44.464 C 40.380 44.464,40.553 44.686,40.621 44.958 C 40.756 45.496,41.088 45.905,41.391 45.905 C 41.497 45.905,41.594 46.026,41.607 46.175 C 41.619 46.323,41.639 46.532,41.652 46.639 C 41.664 46.746,41.811 46.933,41.977 47.055 C 42.144 47.177,42.331 47.479,42.393 47.726 C 42.455 47.973,42.704 48.324,42.945 48.505 C 43.187 48.687,43.385 48.925,43.385 49.035 C 43.386 49.145,43.613 49.478,43.890 49.775 C 44.167 50.072,44.448 50.457,44.514 50.630 C 44.579 50.803,44.717 50.945,44.819 50.945 C 44.921 50.945,45.005 51.069,45.005 51.221 C 45.005 51.372,45.126 51.543,45.275 51.600 C 45.423 51.657,45.545 51.808,45.545 51.935 C 45.545 52.063,45.671 52.215,45.826 52.275 C 45.981 52.334,46.056 52.466,45.994 52.567 C 45.931 52.668,45.792 52.697,45.684 52.630 C 45.567 52.558,45.541 52.594,45.619 52.720 C 45.691 52.836,45.809 52.894,45.883 52.849 C 45.956 52.803,46.214 53.016,46.455 53.322 C 47.330 54.428,47.522 54.571,47.939 54.428 C 48.157 54.354,48.497 54.298,48.695 54.303 C 50.970 54.368,57.975 54.412,60.274 54.377 C 61.890 54.352,63.261 54.380,63.320 54.439 C 63.490 54.609,64.415 54.562,64.529 54.378 C 64.683 54.129,64.707 30.400,64.554 29.928 C 64.389 29.421,64.292 29.423,63.584 29.945 M21.037 67.772 C 20.992 67.817,18.197 67.870,14.828 67.889 C 10.070 67.915,8.701 67.973,8.701 68.148 C 8.701 68.271,8.809 68.331,8.941 68.280 C 9.093 68.222,9.181 68.324,9.181 68.557 C 9.181 68.760,9.267 68.979,9.373 69.044 C 9.479 69.110,9.522 69.277,9.469 69.415 C 9.413 69.560,9.484 69.667,9.637 69.667 C 9.782 69.667,9.911 69.788,9.923 69.937 C 9.936 70.086,9.958 70.308,9.973 70.432 C 9.987 70.556,10.144 70.632,10.322 70.601 C 10.542 70.564,10.710 70.721,10.852 71.097 C 10.967 71.399,11.123 71.647,11.201 71.647 C 11.278 71.647,11.341 71.763,11.341 71.904 C 11.341 72.046,11.480 72.300,11.649 72.469 C 11.818 72.639,11.983 72.948,12.014 73.157 C 12.046 73.366,12.151 73.565,12.248 73.598 C 12.344 73.631,12.370 73.745,12.305 73.851 C 12.234 73.964,12.271 73.990,12.394 73.914 C 12.518 73.838,12.675 73.954,12.781 74.202 C 13.007 74.725,13.247 75.110,14.055 76.238 C 14.409 76.733,14.954 77.494,15.264 77.930 C 15.575 78.366,15.792 78.782,15.746 78.856 C 15.701 78.930,15.790 79.039,15.944 79.098 C 16.101 79.158,16.167 79.298,16.095 79.414 C 16.014 79.546,16.045 79.575,16.178 79.492 C 16.314 79.409,16.459 79.557,16.579 79.900 C 16.682 80.197,16.883 80.484,17.024 80.538 C 17.166 80.592,17.282 80.761,17.282 80.912 C 17.282 81.064,17.368 81.188,17.472 81.188 C 17.577 81.188,17.609 81.275,17.544 81.381 C 17.479 81.487,17.656 81.790,17.938 82.056 C 18.221 82.321,18.653 82.923,18.898 83.393 C 19.144 83.864,19.452 84.248,19.584 84.248 C 19.715 84.248,19.773 84.330,19.711 84.430 C 19.650 84.529,19.726 84.660,19.881 84.719 C 20.035 84.778,20.162 84.905,20.162 85.001 C 20.162 85.096,20.263 85.279,20.387 85.407 C 21.196 86.245,22.502 88.070,22.502 88.361 C 22.502 88.459,22.587 88.567,22.690 88.602 C 22.794 88.636,22.891 88.833,22.907 89.039 C 22.941 89.496,24.122 90.352,24.122 89.921 C 24.122 89.771,24.211 89.669,24.318 89.694 C 24.426 89.719,24.670 89.455,24.860 89.109 C 25.050 88.762,25.272 88.479,25.353 88.479 C 25.434 88.479,25.886 88.094,26.356 87.624 C 26.826 87.153,27.291 86.769,27.388 86.769 C 27.485 86.769,27.516 86.691,27.457 86.595 C 27.398 86.500,27.872 86.093,28.509 85.690 C 29.147 85.287,29.714 84.839,29.770 84.693 C 29.826 84.548,29.996 84.428,30.147 84.428 C 30.299 84.428,30.423 84.365,30.423 84.288 C 30.423 84.211,30.646 84.054,30.918 83.941 C 31.190 83.827,31.697 83.577,32.043 83.384 C 33.288 82.692,35.055 82.192,35.564 82.387 C 35.731 82.451,35.927 82.391,36.015 82.249 C 36.115 82.088,36.516 81.993,37.134 81.984 C 37.664 81.977,38.186 81.916,38.295 81.849 C 38.535 81.700,39.125 81.688,39.964 81.814 C 40.311 81.866,40.878 81.945,41.224 81.990 C 41.571 82.035,42.315 82.189,42.878 82.331 C 43.441 82.474,43.941 82.552,43.988 82.505 C 44.035 82.458,44.300 82.568,44.577 82.749 C 44.854 82.930,45.019 82.978,44.943 82.855 C 44.849 82.703,44.894 82.666,45.084 82.739 C 45.237 82.798,45.318 82.919,45.263 83.007 C 45.208 83.096,45.312 83.168,45.494 83.168 C 45.676 83.168,45.984 83.275,46.180 83.405 C 46.375 83.535,46.879 83.741,47.300 83.862 C 47.721 83.984,48.065 84.161,48.065 84.256 C 48.065 84.351,48.186 84.428,48.335 84.428 C 48.483 84.428,48.605 84.514,48.605 84.619 C 48.605 84.724,48.677 84.765,48.764 84.711 C 48.852 84.657,49.024 84.733,49.147 84.880 C 49.269 85.028,49.481 85.149,49.617 85.149 C 49.753 85.149,49.865 85.230,49.865 85.329 C 49.865 85.428,49.986 85.509,50.135 85.509 C 50.284 85.509,50.405 85.590,50.405 85.689 C 50.405 85.788,50.486 85.869,50.585 85.869 C 50.773 85.869,51.456 86.490,51.525 86.724 C 51.547 86.798,51.661 86.836,51.780 86.809 C 51.898 86.782,52.225 87.090,52.505 87.494 C 52.786 87.898,53.262 88.487,53.564 88.804 C 54.416 89.696,55.086 90.644,55.086 90.958 C 55.086 91.115,55.288 91.402,55.536 91.597 C 55.783 91.792,55.986 92.105,55.986 92.294 C 55.986 92.483,56.083 92.734,56.202 92.853 C 56.320 92.972,56.355 93.069,56.279 93.069 C 56.203 93.069,56.309 93.305,56.513 93.592 C 56.718 93.880,56.886 94.256,56.886 94.427 C 56.886 94.599,57.027 94.847,57.201 94.979 C 57.397 95.128,57.430 95.220,57.288 95.224 C 57.112 95.228,57.120 95.370,57.324 95.860 C 57.469 96.206,57.511 96.490,57.417 96.490 C 57.162 96.490,57.210 97.149,57.485 97.423 C 57.751 97.689,58.034 99.073,57.792 98.924 C 57.544 98.770,57.802 99.519,58.075 99.746 C 58.387 100.005,58.402 100.884,58.101 101.202 C 57.977 101.333,57.860 101.878,57.842 102.413 C 57.821 102.987,57.711 103.446,57.572 103.533 C 57.378 103.653,57.381 103.752,57.585 104.082 C 57.752 104.351,57.771 104.506,57.640 104.549 C 57.533 104.585,57.491 104.730,57.545 104.872 C 57.600 105.014,57.557 105.131,57.451 105.131 C 57.344 105.131,57.308 105.262,57.369 105.423 C 57.437 105.599,57.363 105.782,57.184 105.882 C 57.020 105.973,56.886 106.201,56.886 106.387 C 56.886 106.573,56.763 106.848,56.612 106.998 C 56.462 107.148,56.355 107.337,56.374 107.416 C 56.477 107.839,55.945 109.114,55.705 109.022 C 55.525 108.953,55.446 109.050,55.446 109.340 C 55.446 109.570,55.249 109.970,55.009 110.229 C 54.769 110.488,54.468 110.988,54.341 111.340 C 54.194 111.749,54.022 111.947,53.868 111.888 C 53.735 111.837,53.675 111.874,53.734 111.970 C 53.874 112.195,53.513 112.871,53.253 112.871 C 52.985 112.871,51.249 114.492,51.086 114.894 C 51.015 115.068,50.831 115.212,50.678 115.212 C 50.525 115.212,50.177 115.461,49.904 115.767 C 49.565 116.146,49.218 116.335,48.807 116.363 C 48.472 116.387,48.133 116.536,48.041 116.701 C 47.941 116.880,47.759 116.952,47.580 116.884 C 47.383 116.808,47.329 116.840,47.416 116.981 C 47.499 117.116,47.413 117.192,47.175 117.192 C 46.971 117.192,46.805 117.286,46.805 117.402 C 46.805 117.517,46.754 117.561,46.692 117.499 C 46.630 117.437,46.297 117.504,45.953 117.648 C 45.608 117.792,45.261 117.869,45.181 117.819 C 45.101 117.770,45.008 117.791,44.975 117.866 C 44.942 117.941,44.556 118.123,44.118 118.272 C 43.142 118.602,43.080 118.757,43.655 119.425 C 43.902 119.713,44.104 120.038,44.104 120.147 C 44.104 120.257,44.310 120.501,44.562 120.690 C 44.814 120.879,44.984 121.127,44.940 121.241 C 44.896 121.355,45.014 121.544,45.202 121.662 C 45.391 121.779,45.545 121.996,45.545 122.144 C 45.545 122.291,45.626 122.412,45.725 122.412 C 45.824 122.412,45.905 122.518,45.905 122.648 C 45.905 122.778,46.047 123.041,46.221 123.233 C 46.395 123.425,46.636 123.805,46.757 124.077 C 46.878 124.350,47.068 124.572,47.180 124.572 C 47.292 124.572,47.337 124.694,47.280 124.842 C 47.217 125.007,47.279 125.113,47.440 125.113 C 47.586 125.113,47.705 125.234,47.705 125.383 C 47.705 125.531,47.783 125.653,47.879 125.653 C 47.975 125.653,48.016 125.754,47.971 125.878 C 47.899 126.073,48.366 126.682,49.661 128.083 C 49.844 128.281,50.057 128.645,50.135 128.893 C 50.213 129.140,50.434 129.480,50.627 129.648 C 50.820 129.816,50.925 130.039,50.861 130.143 C 50.797 130.248,50.811 130.333,50.892 130.333 C 51.083 130.333,52.303 132.175,52.242 132.372 C 52.217 132.453,52.285 132.465,52.393 132.399 C 52.504 132.330,52.632 132.441,52.688 132.655 C 52.743 132.863,52.859 133.033,52.946 133.033 C 53.034 133.033,53.105 133.146,53.105 133.284 C 53.105 133.422,53.238 133.586,53.401 133.648 C 53.564 133.711,53.650 133.809,53.592 133.867 C 53.535 133.924,53.692 134.161,53.943 134.393 C 54.193 134.625,54.345 134.900,54.281 135.004 C 54.217 135.108,54.243 135.194,54.339 135.194 C 54.435 135.194,54.696 135.570,54.918 136.030 C 55.141 136.490,55.594 137.145,55.925 137.486 C 56.256 137.827,56.488 138.169,56.440 138.247 C 56.363 138.371,56.511 138.594,57.242 139.461 C 57.343 139.581,57.426 139.763,57.426 139.866 C 57.426 139.970,57.509 140.054,57.610 140.054 C 57.712 140.054,57.872 140.257,57.966 140.504 C 58.060 140.752,58.220 140.954,58.321 140.954 C 58.423 140.954,58.506 141.064,58.506 141.199 C 58.506 141.334,58.789 141.744,59.136 142.112 C 59.482 142.479,59.766 142.941,59.766 143.138 C 59.766 143.335,59.847 143.446,59.946 143.384 C 60.045 143.323,60.126 143.399,60.126 143.554 C 60.126 143.708,60.214 143.834,60.321 143.834 C 60.428 143.834,60.483 143.935,60.442 144.058 C 60.358 144.309,60.718 144.734,61.013 144.734 C 61.119 144.734,61.206 144.856,61.206 145.005 C 61.206 145.153,61.287 145.275,61.386 145.275 C 61.485 145.275,61.566 145.381,61.566 145.511 C 61.566 145.640,61.728 145.921,61.926 146.133 C 62.124 146.346,62.286 146.595,62.286 146.688 C 62.286 146.780,62.413 146.905,62.568 146.964 C 62.722 147.024,62.799 147.154,62.737 147.253 C 62.675 147.353,62.716 147.435,62.826 147.435 C 62.937 147.435,62.977 147.516,62.916 147.616 C 62.854 147.716,62.930 147.846,63.085 147.905 C 63.240 147.965,63.366 148.091,63.366 148.187 C 63.366 148.420,63.833 148.875,64.074 148.875 C 64.180 148.875,64.266 148.749,64.266 148.594 C 64.266 148.440,64.344 148.362,64.440 148.421 C 64.701 148.582,64.758 68.424,64.496 67.987 C 64.447 67.904,62.735 67.832,60.691 67.826 C 58.648 67.820,48.908 67.787,39.047 67.753 C 29.187 67.718,21.082 67.727,21.037 67.772 M285.231 72.412 C 285.184 72.536,285.166 77.174,285.192 82.718 L 285.239 92.799 285.329 82.493 C 285.378 76.825,285.396 72.187,285.368 72.187 C 285.340 72.187,285.278 72.288,285.231 72.412 M346.916 73.212 C 346.904 73.726,346.957 74.185,347.033 74.232 C 347.109 74.279,347.145 73.980,347.114 73.567 C 347.020 72.356,346.938 72.208,346.916 73.212 M379.563 74.932 L 378.308 76.238 379.613 74.982 C 380.825 73.816,381.000 73.627,380.868 73.627 C 380.841 73.627,380.254 74.215,379.563 74.932 M216.382 75.338 C 215.944 75.783,215.627 76.148,215.677 76.148 C 215.726 76.148,216.124 75.783,216.562 75.338 C 216.999 74.892,217.316 74.527,217.267 74.527 C 217.217 74.527,216.819 74.892,216.382 75.338 M177.923 76.328 C 177.923 77.268,177.953 77.653,177.990 77.183 C 178.027 76.712,178.027 75.943,177.990 75.473 C 177.953 75.002,177.923 75.387,177.923 76.328 M349.505 76.868 C 350.093 77.462,350.614 77.948,350.664 77.948 C 350.713 77.948,350.273 77.462,349.685 76.868 C 349.097 76.274,348.576 75.788,348.526 75.788 C 348.477 75.788,348.917 76.274,349.505 76.868 M357.426 77.048 C 358.014 77.642,358.535 78.128,358.585 78.128 C 358.634 78.128,358.194 77.642,357.606 77.048 C 357.018 76.454,356.496 75.968,356.447 75.968 C 356.397 75.968,356.838 76.454,357.426 77.048 M376.322 78.353 L 375.248 79.478 376.373 78.403 C 376.991 77.813,377.498 77.306,377.498 77.278 C 377.498 77.145,377.320 77.308,376.322 78.353 M352.385 79.928 C 352.873 80.423,353.312 80.828,353.362 80.828 C 353.411 80.828,353.053 80.423,352.565 79.928 C 352.078 79.433,351.638 79.028,351.589 79.028 C 351.539 79.028,351.898 79.433,352.385 79.928 M360.666 80.468 C 361.254 81.062,361.775 81.548,361.825 81.548 C 361.874 81.548,361.434 81.062,360.846 80.468 C 360.258 79.874,359.737 79.388,359.687 79.388 C 359.638 79.388,360.078 79.874,360.666 80.468 M373.261 81.593 L 372.367 82.538 373.312 81.645 C 373.832 81.154,374.257 80.728,374.257 80.700 C 374.257 80.566,374.091 80.715,373.261 81.593 M381.001 81.593 L 380.108 82.538 381.052 81.646 L 381.996 80.754 382.043 92.807 L 382.091 104.860 382.135 92.754 C 382.159 86.096,382.114 80.648,382.036 80.648 C 381.958 80.648,381.493 81.073,381.001 81.593 M291.170 81.416 C 291.122 81.542,291.106 83.668,291.134 86.142 L 291.186 90.639 291.227 86.019 C 291.259 82.523,291.324 81.376,291.494 81.307 C 291.670 81.236,291.669 81.213,291.488 81.202 C 291.362 81.195,291.218 81.291,291.170 81.416 M355.536 83.258 C 356.073 83.803,356.554 84.248,356.603 84.248 C 356.653 84.248,356.253 83.803,355.716 83.258 C 355.178 82.714,354.697 82.268,354.648 82.268 C 354.598 82.268,354.998 82.714,355.536 83.258 M363.456 83.438 C 363.994 83.983,364.475 84.428,364.524 84.428 C 364.574 84.428,364.174 83.983,363.636 83.438 C 363.099 82.894,362.618 82.448,362.569 82.448 C 362.519 82.448,362.919 82.894,363.456 83.438 M378.122 84.653 L 377.048 85.779 378.173 84.704 C 378.792 84.113,379.298 83.607,379.298 83.579 C 379.298 83.446,379.120 83.608,378.122 84.653 M370.021 85.014 L 368.947 86.139 370.072 85.064 C 370.691 84.473,371.197 83.967,371.197 83.939 C 371.197 83.806,371.019 83.968,370.021 85.014 M158.858 85.194 C 158.811 85.317,158.794 89.955,158.821 95.500 L 158.869 105.581 158.912 95.371 L 158.956 85.162 160.711 85.103 L 162.466 85.044 160.705 85.006 C 159.434 84.979,158.921 85.031,158.858 85.194 M358.866 86.769 C 359.454 87.363,359.975 87.849,360.025 87.849 C 360.074 87.849,359.634 87.363,359.046 86.769 C 358.458 86.175,357.937 85.689,357.887 85.689 C 357.838 85.689,358.278 86.175,358.866 86.769 M366.689 86.814 C 367.435 87.608,367.597 87.751,367.597 87.616 C 367.597 87.587,367.212 87.203,366.742 86.761 L 365.887 85.959 366.689 86.814 M233.920 87.369 C 233.869 87.501,233.855 88.291,233.889 89.124 L 233.950 90.639 233.987 88.980 L 234.023 87.321 236.049 87.263 L 238.074 87.206 236.043 87.167 C 234.489 87.138,233.990 87.185,233.920 87.369 M374.612 88.344 L 373.447 89.559 374.662 88.394 C 375.331 87.753,375.878 87.207,375.878 87.179 C 375.878 87.046,375.694 87.215,374.612 88.344 M164.760 97.788 L 164.716 107.817 163.051 107.877 L 161.386 107.936 163.057 107.973 C 164.256 108.000,164.752 107.947,164.814 107.786 C 164.861 107.662,164.878 103.105,164.852 97.660 L 164.803 87.759 164.760 97.788 M362.106 90.189 C 362.794 90.882,363.397 91.449,363.447 91.449 C 363.496 91.449,362.974 90.882,362.286 90.189 C 361.598 89.496,360.995 88.929,360.946 88.929 C 360.896 88.929,361.418 89.496,362.106 90.189 M372.356 90.774 L 371.827 91.359 372.412 90.830 C 372.734 90.540,372.997 90.276,372.997 90.245 C 372.997 90.106,372.849 90.229,372.356 90.774 M224.437 93.021 C 224.858 93.059,225.547 93.059,225.968 93.021 C 226.388 92.983,226.044 92.952,225.203 92.952 C 224.361 92.952,224.017 92.983,224.437 93.021 M236.589 93.013 C 236.762 93.059,237.045 93.059,237.219 93.013 C 237.392 92.968,237.250 92.931,236.904 92.931 C 236.557 92.931,236.415 92.968,236.589 93.013 M286.000 93.019 C 286.319 93.059,286.886 93.060,287.260 93.021 C 287.633 92.982,287.372 92.949,286.679 92.948 C 285.986 92.948,285.680 92.979,286.000 93.019 M365.662 93.020 C 366.033 93.059,366.640 93.059,367.012 93.020 C 367.383 92.982,367.079 92.950,366.337 92.950 C 365.594 92.950,365.290 92.982,365.662 93.020 M247.222 97.570 C 247.222 98.213,247.255 98.477,247.295 98.155 C 247.335 97.833,247.335 97.306,247.295 96.985 C 247.255 96.663,247.222 96.926,247.222 97.570 M221.660 102.205 C 224.613 102.233,229.392 102.233,232.281 102.205 C 235.170 102.177,232.754 102.155,226.913 102.155 C 221.071 102.155,218.707 102.177,221.660 102.205 M387.978 105.439 L 387.939 107.817 386.274 107.877 L 384.608 107.936 386.279 107.973 C 388.278 108.018,388.148 108.212,388.074 105.301 L 388.017 103.060 387.978 105.439 M213.940 106.301 L 213.951 107.921 225.923 107.923 L 237.894 107.925 225.975 107.876 L 214.055 107.828 213.992 106.254 L 213.928 104.680 213.940 106.301 M243.643 105.356 L 243.114 105.941 243.699 105.412 C 244.245 104.919,244.367 104.770,244.228 104.770 C 244.197 104.770,243.934 105.034,243.643 105.356 M311.048 107.696 C 311.269 107.977,311.631 108.007,314.468 107.970 L 317.642 107.930 314.505 107.876 C 312.377 107.839,311.276 107.751,311.084 107.601 C 310.835 107.407,310.830 107.418,311.048 107.696 " stroke="none" fill="#ca9b6f" fill-rule="evenodd"></path><path id="path1" d="M145.705 72.652 C 145.348 74.072,145.882 76.368,146.759 77.187 C 147.555 77.931,147.926 77.948,163.140 77.948 L 177.858 77.948 177.858 76.220 C 177.858 74.156,177.590 73.453,176.538 72.756 L 175.814 72.277 160.819 72.227 L 145.824 72.177 145.705 72.652 M222.395 72.366 C 214.904 73.470,211.114 82.003,215.320 88.292 C 217.424 91.438,220.426 92.879,224.887 92.886 L 226.823 92.889 226.823 91.281 C 226.823 88.519,225.727 87.153,223.492 87.129 C 219.695 87.087,217.856 82.010,220.654 79.293 C 222.001 77.984,221.408 78.048,233.213 77.948 C 245.085 77.847,244.552 77.908,245.392 76.557 C 245.762 75.962,245.815 75.653,245.815 74.077 L 245.815 72.277 234.563 72.254 C 228.375 72.241,222.899 72.292,222.395 72.366 M285.449 72.307 C 285.383 72.373,285.329 77.038,285.329 82.674 L 285.329 92.921 287.296 92.860 C 290.853 92.750,290.972 92.541,291.089 86.186 C 291.145 83.168,291.248 81.288,291.359 81.255 C 291.458 81.226,292.795 82.910,294.329 84.997 C 297.063 88.714,300.718 93.649,307.741 103.105 L 311.250 107.831 314.402 107.831 L 317.554 107.831 317.508 90.054 L 317.462 72.277 315.662 72.289 C 311.487 72.318,311.630 71.795,311.614 87.039 L 311.601 99.100 311.111 98.544 C 310.841 98.239,309.398 96.335,307.902 94.314 C 306.407 92.293,303.566 88.452,301.589 85.779 C 291.536 72.183,291.766 72.491,291.540 72.325 C 291.314 72.160,285.613 72.143,285.449 72.307 M347.075 73.184 L 347.075 74.180 350.103 77.369 C 351.768 79.123,355.585 83.150,358.585 86.319 C 365.480 93.601,364.636 92.947,367.020 92.849 C 370.628 92.700,370.263 92.972,378.362 84.383 C 380.300 82.329,381.949 80.648,382.028 80.648 C 382.107 80.648,382.193 86.345,382.220 93.308 L 382.268 105.969 382.787 106.649 C 383.508 107.594,384.193 107.831,386.202 107.831 L 387.898 107.831 388.019 103.105 C 388.086 100.506,388.116 92.507,388.085 85.329 L 388.029 72.277 385.959 72.291 C 382.071 72.318,382.340 72.125,374.248 80.674 C 366.728 88.619,367.655 87.889,366.579 86.715 C 366.099 86.191,363.133 83.043,359.988 79.718 C 352.994 72.326,352.783 72.187,348.572 72.187 L 347.075 72.187 347.075 73.184 M158.956 95.473 L 158.956 105.797 159.365 106.405 C 160.161 107.586,160.760 107.831,162.857 107.831 L 164.725 107.831 164.676 97.403 C 164.627 87.143,164.620 86.967,164.250 86.467 C 163.437 85.370,162.861 85.149,160.819 85.149 L 158.956 85.149 158.956 95.473 M234.023 89.037 C 234.023 91.728,234.792 92.711,237.084 92.951 C 241.122 93.373,242.962 98.002,240.192 100.772 C 238.736 102.228,239.437 102.149,227.003 102.250 C 216.513 102.336,215.902 102.358,215.364 102.684 C 214.365 103.288,214.041 104.125,214.041 106.100 L 214.041 107.831 226.212 107.831 C 240.617 107.831,241.090 107.763,243.671 105.326 C 251.043 98.365,246.427 87.324,236.139 87.311 L 234.023 87.309 234.023 89.037 " stroke="none" fill="#fafafa" fill-rule="evenodd"></path><path id="path2" d="M125.653 39.424 C 125.653 39.804,125.936 39.884,126.351 39.621 C 126.672 39.418,126.451 39.064,126.002 39.064 C 125.773 39.064,125.653 39.188,125.653 39.424 M69.629 54.679 C 70.252 54.714,71.224 54.714,71.789 54.678 C 72.355 54.643,71.845 54.614,70.657 54.614 C 69.469 54.615,69.006 54.644,69.629 54.679 M77.005 54.673 C 77.229 54.716,77.553 54.714,77.725 54.669 C 77.897 54.624,77.714 54.589,77.318 54.591 C 76.922 54.593,76.781 54.630,77.005 54.673 M145.024 71.752 C 144.757 72.448,144.921 75.874,145.256 76.598 C 146.339 78.938,145.624 78.848,163.196 78.848 C 180.705 78.848,178.758 79.164,178.758 76.320 C 178.758 73.675,178.115 72.476,176.288 71.710 C 175.343 71.314,145.176 71.354,145.024 71.752 M221.585 71.649 C 221.130 71.726,220.603 71.873,220.415 71.975 C 220.226 72.077,219.524 72.406,218.855 72.706 C 211.024 76.210,210.746 88.154,218.397 92.412 C 219.861 93.227,222.092 93.786,224.399 93.917 C 227.564 94.096,227.723 93.971,227.723 91.292 C 227.723 88.408,226.816 86.915,224.910 86.660 C 219.944 85.996,218.350 81.728,222.134 79.230 C 222.525 78.972,223.812 78.928,233.295 78.848 L 244.014 78.758 244.776 78.321 C 246.307 77.444,247.163 74.357,246.551 71.917 L 246.438 71.467 234.425 71.488 C 227.818 71.500,222.040 71.572,221.585 71.649 M284.644 71.683 C 284.481 71.846,284.428 74.509,284.428 82.561 L 284.428 93.223 284.923 93.616 C 285.663 94.203,288.389 94.059,289.874 93.354 C 291.709 92.484,291.880 91.993,291.989 87.309 L 292.079 83.438 293.144 84.878 C 294.112 86.187,295.143 87.589,296.586 89.559 C 296.876 89.955,297.214 90.401,297.337 90.549 C 297.460 90.698,298.091 91.548,298.739 92.439 C 299.387 93.330,300.163 94.383,300.465 94.779 C 300.766 95.176,301.664 96.391,302.460 97.480 C 303.257 98.569,304.099 99.703,304.333 100.000 C 304.566 100.297,305.064 100.964,305.439 101.481 C 306.246 102.595,308.024 105.014,308.911 106.205 C 309.257 106.670,309.820 107.429,310.161 107.891 L 310.780 108.731 314.441 108.731 L 318.101 108.731 318.276 108.269 C 318.545 107.563,318.512 72.517,318.243 71.926 C 317.771 70.890,313.343 71.313,312.085 72.513 C 310.839 73.703,310.891 73.128,310.890 85.638 C 310.889 96.442,310.875 96.919,310.575 96.477 C 310.402 96.222,310.161 95.898,310.038 95.757 C 309.915 95.615,309.163 94.608,308.365 93.519 C 306.418 90.860,305.889 90.150,305.038 89.052 C 304.640 88.539,304.002 87.679,303.620 87.142 C 303.238 86.605,302.856 86.079,302.770 85.972 C 302.621 85.786,301.500 84.271,298.365 80.013 C 296.964 78.110,296.186 77.066,294.560 74.906 C 294.142 74.351,293.661 73.695,293.491 73.447 C 293.320 73.200,292.908 72.653,292.573 72.232 L 291.965 71.467 288.413 71.467 C 285.890 71.467,284.798 71.530,284.644 71.683 M346.373 71.794 C 346.264 71.997,346.175 72.652,346.175 73.249 C 346.175 74.497,346.160 74.475,349.045 77.501 C 349.991 78.493,351.859 80.477,353.195 81.909 C 354.532 83.341,356.476 85.406,357.516 86.497 C 358.555 87.589,360.365 89.494,361.537 90.730 C 364.806 94.179,365.204 94.349,368.459 93.687 C 371.397 93.089,371.205 93.245,378.578 85.462 L 381.188 82.706 381.278 94.413 L 381.368 106.121 381.780 106.783 C 382.846 108.497,383.561 108.776,386.679 108.695 L 388.749 108.641 388.843 90.459 C 388.894 80.459,388.872 72.085,388.794 71.850 L 388.651 71.423 385.990 71.498 C 381.683 71.621,381.617 71.663,375.235 78.398 C 367.650 86.401,367.444 86.606,367.287 86.324 C 367.206 86.180,365.967 84.835,364.533 83.334 C 363.099 81.834,361.886 80.544,361.836 80.468 C 360.890 79.010,354.409 72.819,353.225 72.242 C 351.460 71.381,346.758 71.074,346.373 71.794 M175.737 72.195 C 177.436 72.667,178.038 73.746,178.038 76.322 L 178.038 78.128 163.035 78.128 L 148.031 78.128 147.238 77.709 C 145.962 77.036,145.641 76.280,145.638 73.942 L 145.635 72.007 160.351 72.008 C 169.919 72.009,175.302 72.074,175.737 72.195 M246.051 73.627 C 246.135 75.904,245.684 77.026,244.404 77.726 C 243.888 78.009,242.838 78.046,233.213 78.128 C 222.677 78.217,222.586 78.221,221.847 78.617 C 218.020 80.663,219.021 86.450,223.277 86.883 C 226.087 87.169,227.063 88.354,226.965 91.360 L 226.913 92.979 224.932 93.035 C 211.188 93.420,208.960 74.252,222.502 72.126 C 222.750 72.087,228.137 72.064,234.473 72.076 L 245.995 72.097 246.051 73.627 M295.973 77.903 C 298.376 81.145,301.486 85.338,302.882 87.219 C 305.825 91.183,309.163 95.690,310.447 97.435 C 310.939 98.103,311.402 98.650,311.476 98.650 C 311.550 98.650,311.611 93.173,311.611 86.478 C 311.611 74.535,311.618 74.294,311.981 73.649 C 312.690 72.387,313.375 72.097,315.648 72.097 L 317.642 72.097 317.688 90.054 L 317.734 108.011 314.433 108.011 L 311.132 108.011 310.521 107.156 C 310.185 106.685,308.255 104.073,306.233 101.350 C 301.468 94.937,298.410 90.811,294.956 86.139 C 293.419 84.059,292.006 82.156,291.816 81.908 C 291.471 81.460,291.469 81.477,291.458 85.689 C 291.441 92.293,290.970 93.069,286.982 93.069 L 285.149 93.069 285.149 82.658 C 285.149 76.932,285.203 72.193,285.269 72.127 C 285.335 72.061,286.787 72.007,288.496 72.007 L 291.603 72.007 295.973 77.903 M352.475 72.521 C 353.852 73.048,354.203 73.370,359.428 78.899 C 365.262 85.072,367.433 87.309,367.591 87.309 C 367.660 87.309,370.256 84.615,373.361 81.323 C 376.465 78.031,379.467 74.878,380.032 74.316 C 381.805 72.549,383.571 71.937,386.589 72.041 L 388.209 72.097 388.247 89.289 C 388.268 98.744,388.237 106.825,388.178 107.246 L 388.071 108.011 386.307 108.011 C 381.872 108.011,382.000 108.455,381.999 93.099 C 381.999 86.433,381.934 81.005,381.856 81.038 C 381.777 81.071,379.443 83.488,376.669 86.409 C 370.607 92.792,370.418 92.926,367.311 93.041 C 366.283 93.079,365.248 93.061,365.010 93.001 C 364.751 92.936,361.565 89.708,357.041 84.928 C 352.896 80.547,348.919 76.354,348.204 75.610 C 346.904 74.259,346.402 72.759,347.030 72.107 C 347.314 71.812,351.442 72.126,352.475 72.521 M158.264 84.485 C 158.096 84.687,158.057 87.269,158.095 95.525 L 158.146 106.301 158.636 107.011 C 159.640 108.463,160.310 108.731,162.948 108.731 L 165.265 108.731 165.448 108.251 C 165.566 107.941,165.612 104.099,165.578 97.405 L 165.527 87.039 165.077 86.235 C 164.235 84.734,163.381 84.348,160.744 84.280 C 158.925 84.233,158.440 84.273,158.264 84.485 M163.576 85.465 C 164.921 86.425,164.896 86.193,164.896 97.717 L 164.896 108.011 162.961 108.008 C 160.681 108.004,159.865 107.673,159.188 106.477 L 158.782 105.761 158.779 95.349 L 158.776 84.938 160.891 84.998 C 162.742 85.051,163.077 85.109,163.576 85.465 M233.243 86.709 C 233.046 86.906,233.110 90.402,233.325 91.179 C 233.760 92.750,235.108 93.713,237.240 93.978 C 240.533 94.386,241.820 97.876,239.550 100.240 C 238.527 101.305,239.107 101.253,227.003 101.350 C 214.654 101.449,215.285 101.390,214.188 102.549 C 213.445 103.334,213.321 103.885,213.321 106.402 L 213.321 108.731 226.065 108.731 C 239.993 108.731,239.665 108.753,241.906 107.660 C 250.065 103.677,250.017 91.599,241.824 87.573 C 240.180 86.765,233.827 86.125,233.243 86.709 M239.463 87.409 C 249.414 89.820,250.070 103.659,240.414 107.492 L 239.334 107.921 226.598 107.972 L 213.861 108.022 213.861 106.209 C 213.861 104.132,214.162 103.294,215.162 102.580 L 215.752 102.160 226.823 102.070 C 239.880 101.964,239.574 102.021,240.921 99.462 C 242.407 96.638,240.463 93.665,236.750 93.083 C 235.431 92.876,234.584 92.326,234.139 91.387 C 233.766 90.601,233.710 87.207,234.068 87.077 C 234.502 86.919,238.443 87.162,239.463 87.409 M93.016 104.704 C 92.733 104.987,92.912 105.311,93.353 105.311 C 93.696 105.311,93.800 105.229,93.756 104.998 C 93.692 104.670,93.232 104.487,93.016 104.704 M89.915 107.837 C 89.846 107.950,89.873 108.127,89.977 108.230 C 90.219 108.472,90.783 108.261,90.684 107.966 C 90.584 107.665,90.075 107.579,89.915 107.837 M77.588 131.322 C 77.356 131.570,77.200 131.802,77.242 131.839 C 77.284 131.876,77.506 131.673,77.736 131.389 C 78.252 130.754,78.161 130.713,77.588 131.322 M27.543 137.714 C 27.543 137.914,27.663 138.074,27.813 138.074 C 27.963 138.074,28.083 137.914,28.083 137.714 C 28.083 137.514,27.963 137.354,27.813 137.354 C 27.663 137.354,27.543 137.514,27.543 137.714 M101.890 146.431 C 101.890 146.598,102.044 146.715,102.265 146.715 C 102.704 146.715,102.642 146.294,102.190 146.206 C 102.013 146.172,101.890 146.264,101.890 146.431 " stroke="none" fill="#1a1a1a" fill-rule="evenodd"></path><path id="path3" d="M63.881 29.298 C 63.121 30.216,63.087 30.319,63.691 29.877 C 64.551 29.246,64.615 29.472,64.659 33.303 C 64.714 38.112,64.595 54.251,64.503 54.410 C 64.411 54.570,63.474 54.593,63.320 54.439 C 63.261 54.380,61.890 54.352,60.274 54.377 C 57.975 54.412,50.970 54.368,48.695 54.303 C 48.497 54.298,48.157 54.354,47.939 54.428 C 47.520 54.572,47.318 54.420,46.445 53.300 C 46.197 52.983,46.016 52.645,46.041 52.549 C 46.067 52.454,45.966 52.328,45.816 52.271 C 45.667 52.214,45.545 52.063,45.545 51.935 C 45.545 51.808,45.423 51.657,45.275 51.600 C 45.126 51.543,45.005 51.381,45.005 51.240 C 45.005 51.099,44.883 50.937,44.734 50.880 C 44.586 50.823,44.464 50.689,44.464 50.583 C 44.464 50.476,44.252 50.170,43.992 49.902 C 43.423 49.316,43.565 49.596,44.565 51.035 C 44.977 51.629,45.519 52.416,45.768 52.784 C 46.018 53.152,46.446 53.719,46.720 54.044 L 47.218 54.635 64.563 54.630 L 81.908 54.625 82.504 54.000 C 83.127 53.346,84.248 51.746,84.248 51.510 C 84.248 51.435,84.393 51.216,84.569 51.024 C 84.870 50.696,85.409 49.933,86.425 48.400 C 86.664 48.040,87.223 47.238,87.669 46.617 C 89.113 44.606,94.316 36.954,96.160 34.130 C 96.759 33.214,96.768 33.123,96.265 33.125 C 95.661 33.126,92.926 33.809,92.264 34.123 C 91.947 34.274,91.087 34.548,90.353 34.734 C 89.619 34.919,88.336 35.242,87.501 35.452 C 86.666 35.662,85.897 35.905,85.791 35.992 C 85.685 36.078,84.757 36.362,83.729 36.621 C 82.701 36.880,81.795 37.132,81.716 37.181 C 81.637 37.230,81.223 37.344,80.795 37.433 C 80.368 37.523,79.451 37.812,78.758 38.076 C 78.065 38.339,77.014 38.633,76.424 38.729 C 75.833 38.826,75.254 38.984,75.137 39.081 C 74.908 39.271,74.018 38.453,71.737 35.949 C 71.044 35.188,70.379 34.566,70.258 34.565 C 70.138 34.564,69.948 34.381,69.835 34.158 C 69.722 33.936,69.299 33.448,68.893 33.074 C 68.488 32.701,68.029 32.200,67.872 31.962 C 67.716 31.724,67.275 31.280,66.893 30.976 C 66.510 30.672,66.255 30.423,66.327 30.423 C 66.398 30.423,66.119 30.099,65.707 29.703 C 64.897 28.925,64.300 28.793,63.881 29.298 M62.681 30.614 C 62.467 30.957,62.477 30.970,62.823 30.785 C 63.028 30.675,63.149 30.508,63.091 30.414 C 62.950 30.186,62.948 30.187,62.681 30.614 M33.398 33.295 C 33.340 33.390,33.173 33.422,33.028 33.366 C 32.636 33.216,32.705 33.590,33.235 34.495 C 33.753 35.378,34.038 35.461,33.591 34.598 C 33.293 34.022,33.379 33.854,34.108 33.592 C 34.406 33.485,34.420 33.437,34.198 33.296 C 33.855 33.079,33.532 33.079,33.398 33.295 M36.364 34.023 C 36.364 34.122,36.438 34.203,36.529 34.203 C 36.620 34.203,36.843 34.251,37.024 34.308 C 37.326 34.404,37.324 34.389,37.004 34.128 C 36.604 33.802,36.364 33.763,36.364 34.023 M57.646 35.813 C 57.015 36.390,56.879 36.665,57.381 36.348 C 57.670 36.165,58.419 35.284,58.284 35.284 C 58.252 35.284,57.965 35.522,57.646 35.813 M41.404 35.533 C 41.404 35.571,41.607 35.640,41.854 35.688 C 42.102 35.735,42.304 35.704,42.304 35.619 C 42.304 35.533,42.102 35.464,41.854 35.464 C 41.607 35.464,41.404 35.495,41.404 35.533 M34.755 36.689 C 35.255 37.598,35.552 37.882,35.827 37.712 C 35.951 37.635,35.819 37.436,35.477 37.184 C 35.175 36.961,34.957 36.746,34.993 36.706 C 35.028 36.666,34.893 36.472,34.693 36.274 C 34.370 35.954,34.377 36.000,34.755 36.689 M35.761 37.939 C 35.706 38.029,35.895 38.359,36.182 38.673 C 36.469 38.987,36.666 39.244,36.621 39.244 C 36.576 39.244,36.754 39.570,37.017 39.968 C 37.281 40.366,37.527 40.660,37.565 40.623 C 37.692 40.496,37.275 39.604,37.088 39.604 C 36.987 39.604,36.921 39.543,36.942 39.469 C 37.046 39.102,35.933 37.661,35.761 37.939 M38.314 41.726 C 38.446 41.818,38.548 41.946,38.539 42.009 C 38.490 42.378,38.557 42.484,38.839 42.481 C 39.107 42.479,39.114 42.454,38.884 42.308 C 38.735 42.214,38.614 42.040,38.614 41.921 C 38.614 41.802,38.492 41.671,38.344 41.630 C 38.129 41.572,38.123 41.591,38.314 41.726 M39.058 42.997 C 39.470 43.726,40.131 44.377,40.138 44.059 C 40.141 43.886,40.065 43.744,39.967 43.744 C 39.870 43.744,39.742 43.550,39.682 43.311 C 39.622 43.073,39.420 42.838,39.232 42.789 C 38.957 42.717,38.923 42.758,39.058 42.997 M40.332 44.840 C 40.443 45.046,40.569 45.180,40.613 45.136 C 40.739 45.010,40.483 44.464,40.298 44.464 C 40.206 44.464,40.222 44.633,40.332 44.840 M41.314 46.265 C 41.493 46.463,41.660 46.625,41.685 46.625 C 41.710 46.625,41.688 46.463,41.636 46.265 C 41.585 46.067,41.418 45.905,41.265 45.905 C 41.032 45.905,41.040 45.962,41.314 46.265 M10.711 67.867 C 10.772 67.966,11.137 68.047,11.521 68.047 C 11.906 68.047,12.270 67.966,12.331 67.867 C 12.400 67.756,12.090 67.687,11.521 67.687 C 10.953 67.687,10.642 67.756,10.711 67.867 M56.886 67.867 C 57.239 68.095,57.915 68.095,58.056 67.867 C 58.123 67.757,57.863 67.688,57.391 67.690 C 56.824 67.692,56.688 67.739,56.886 67.867 M75.823 67.823 C 69.555 67.849,64.463 67.930,64.507 68.003 C 64.760 68.429,64.694 148.578,64.440 148.421 C 64.344 148.362,64.266 148.440,64.266 148.594 C 64.266 148.749,64.145 148.875,63.996 148.875 C 63.848 148.875,63.726 148.780,63.726 148.665 C 63.726 148.549,63.687 148.494,63.639 148.542 C 63.473 148.709,63.988 149.777,64.281 149.870 C 64.781 150.028,65.050 149.810,65.789 148.647 C 66.182 148.030,66.753 147.201,67.058 146.805 C 67.364 146.409,67.772 145.774,67.966 145.394 C 68.159 145.014,68.459 144.627,68.632 144.533 C 68.805 144.439,68.947 144.256,68.947 144.126 C 68.947 143.996,69.150 143.655,69.398 143.367 C 69.646 143.080,69.895 142.700,69.952 142.523 C 70.009 142.347,70.234 142.010,70.452 141.774 C 70.671 141.538,70.968 141.115,71.113 140.835 C 71.258 140.554,71.426 140.284,71.487 140.234 C 71.548 140.185,71.970 139.577,72.424 138.884 C 73.181 137.728,73.785 136.909,74.264 136.387 C 74.366 136.275,74.663 135.819,74.923 135.374 C 75.184 134.928,75.566 134.385,75.772 134.166 C 75.979 133.947,76.148 133.719,76.148 133.658 C 76.148 133.598,76.391 133.195,76.688 132.763 C 76.985 132.332,77.228 131.916,77.228 131.841 C 77.228 131.765,77.420 131.496,77.655 131.243 C 77.890 130.990,79.152 129.203,80.459 127.273 C 81.767 125.342,83.034 123.479,83.276 123.132 C 83.517 122.786,83.796 122.381,83.896 122.232 C 86.461 118.429,86.487 118.357,85.356 118.177 C 84.994 118.119,84.170 117.874,83.524 117.632 C 82.878 117.390,82.287 117.192,82.211 117.192 C 82.135 117.192,81.975 117.105,81.856 116.998 C 81.736 116.891,81.059 116.466,80.352 116.053 C 78.668 115.069,77.608 114.195,76.007 112.468 C 75.293 111.698,73.087 108.386,73.087 108.084 C 73.087 107.965,72.851 107.313,72.562 106.635 C 71.187 103.400,71.104 98.029,72.383 94.963 C 72.671 94.272,72.907 93.625,72.907 93.525 C 72.907 93.224,73.856 91.449,74.017 91.449 C 74.100 91.449,74.167 91.368,74.167 91.270 C 74.167 91.171,74.451 90.695,74.797 90.213 C 75.144 89.731,75.428 89.258,75.428 89.162 C 75.428 88.996,78.070 86.475,79.032 85.722 C 79.893 85.048,81.214 84.337,83.537 83.294 C 85.970 82.203,90.034 81.803,92.947 82.368 C 95.423 82.848,99.951 84.817,100.240 85.539 C 100.273 85.621,100.415 85.689,100.555 85.689 C 100.884 85.689,102.705 87.422,104.005 88.974 C 105.028 90.195,105.345 90.363,105.859 89.958 C 106.144 89.734,108.912 85.776,109.513 84.734 C 109.696 84.418,109.989 83.996,110.165 83.798 C 110.686 83.213,114.311 77.780,114.311 77.586 C 114.311 77.488,114.394 77.408,114.495 77.408 C 114.596 77.408,114.778 77.185,114.899 76.913 C 115.020 76.640,115.255 76.267,115.422 76.083 C 115.588 75.900,116.027 75.259,116.397 74.659 C 116.767 74.060,117.214 73.425,117.391 73.248 C 117.568 73.071,117.850 72.659,118.018 72.332 C 118.187 72.005,118.662 71.292,119.074 70.747 C 120.069 69.434,120.612 68.520,120.612 68.161 C 120.612 67.894,119.989 67.867,113.906 67.868 C 110.218 67.869,102.705 67.849,97.210 67.823 C 91.715 67.798,82.091 67.798,75.823 67.823 M8.740 68.454 C 8.822 68.881,9.541 69.692,9.541 69.358 C 9.541 69.242,9.460 69.098,9.361 69.037 C 9.262 68.976,9.181 68.777,9.181 68.595 C 9.181 68.414,9.065 68.221,8.923 68.166 C 8.738 68.095,8.686 68.176,8.740 68.454 M9.541 69.825 C 9.541 69.912,9.656 70.078,9.797 70.195 C 10.007 70.370,10.035 70.341,9.956 70.037 C 9.861 69.675,9.541 69.512,9.541 69.825 M10.177 70.737 C 10.120 70.830,10.297 71.137,10.572 71.420 C 10.846 71.702,11.231 72.233,11.427 72.600 C 11.785 73.272,12.060 73.477,11.993 73.023 C 11.974 72.888,11.819 72.639,11.649 72.470 C 11.480 72.300,11.341 72.046,11.341 71.904 C 11.341 71.763,11.278 71.647,11.201 71.647 C 11.123 71.647,10.968 71.404,10.856 71.107 C 10.653 70.568,10.375 70.416,10.177 70.737 M153.074 72.142 C 157.215 72.169,163.939 72.169,168.015 72.142 C 172.092 72.115,168.704 72.093,160.486 72.093 C 152.268 72.093,148.933 72.115,153.074 72.142 M234.332 72.142 L 245.892 72.190 245.953 73.899 L 246.015 75.608 246.005 73.853 L 245.995 72.097 234.383 72.095 L 222.772 72.093 234.332 72.142 M285.266 72.142 C 285.220 72.216,286.600 72.253,288.332 72.224 C 290.705 72.184,291.556 72.228,291.781 72.404 C 292.048 72.613,292.053 72.604,291.832 72.322 C 291.572 71.990,285.464 71.823,285.266 72.142 M315.840 72.138 L 317.550 72.200 317.597 90.061 L 317.644 107.921 317.643 90.009 L 317.642 72.097 315.886 72.087 L 314.131 72.077 315.840 72.138 M347.012 72.142 C 346.966 72.216,347.508 72.255,348.216 72.228 C 350.532 72.140,350.799 72.068,348.931 72.037 C 347.922 72.021,347.058 72.068,347.012 72.142 M386.183 72.138 L 388.117 72.199 388.164 89.205 L 388.212 106.211 388.210 89.154 L 388.209 72.097 386.229 72.087 L 384.248 72.077 386.183 72.138 M176.598 72.604 C 176.598 72.635,176.861 72.898,177.183 73.189 L 177.768 73.717 177.239 73.132 C 176.746 72.587,176.598 72.465,176.598 72.604 M352.490 72.614 C 352.675 72.780,353.735 73.267,353.735 73.187 C 353.735 73.083,352.737 72.547,352.544 72.547 C 352.473 72.547,352.449 72.577,352.490 72.614 M379.838 74.437 C 379.401 74.883,379.083 75.248,379.133 75.248 C 379.182 75.248,379.581 74.883,380.018 74.437 C 380.455 73.992,380.773 73.627,380.723 73.627 C 380.674 73.627,380.275 73.992,379.838 74.437 M347.435 74.797 C 347.771 75.144,348.086 75.428,348.135 75.428 C 348.185 75.428,347.951 75.144,347.615 74.797 C 347.279 74.451,346.964 74.167,346.914 74.167 C 346.865 74.167,347.099 74.451,347.435 74.797 M356.346 75.788 C 357.033 76.481,357.637 77.048,357.686 77.048 C 357.736 77.048,357.213 76.481,356.526 75.788 C 355.838 75.095,355.235 74.527,355.185 74.527 C 355.136 74.527,355.658 75.095,356.346 75.788 M14.688 77.408 C 15.168 78.150,15.583 78.792,15.611 78.833 C 15.639 78.874,15.698 78.871,15.743 78.827 C 15.824 78.746,14.372 76.575,14.010 76.238 C 13.904 76.139,14.209 76.665,14.688 77.408 M377.222 77.273 L 376.148 78.398 377.273 77.323 C 377.892 76.732,378.398 76.226,378.398 76.198 C 378.398 76.065,378.220 76.228,377.222 77.273 M350.405 77.948 C 350.993 78.542,351.514 79.028,351.564 79.028 C 351.613 79.028,351.173 78.542,350.585 77.948 C 349.997 77.354,349.476 76.868,349.426 76.868 C 349.377 76.868,349.817 77.354,350.405 77.948 M155.504 78.083 C 159.695 78.110,166.499 78.110,170.626 78.083 C 174.752 78.056,171.323 78.034,163.006 78.034 C 154.689 78.034,151.313 78.056,155.504 78.083 M228.591 78.083 C 231.395 78.111,235.931 78.111,238.672 78.083 C 241.412 78.055,239.118 78.032,233.573 78.032 C 228.029 78.032,225.787 78.055,228.591 78.083 M359.676 79.298 C 360.314 79.941,360.876 80.468,360.926 80.468 C 360.975 80.468,360.494 79.941,359.856 79.298 C 359.218 78.654,358.656 78.128,358.606 78.128 C 358.557 78.128,359.038 78.654,359.676 79.298 M220.601 79.433 L 220.072 80.018 220.657 79.489 C 220.979 79.198,221.242 78.935,221.242 78.904 C 221.242 78.765,221.094 78.888,220.601 79.433 M373.891 80.783 L 372.907 81.818 373.942 80.834 C 374.904 79.920,375.060 79.748,374.926 79.748 C 374.898 79.748,374.432 80.214,373.891 80.783 M353.375 81.098 C 354.013 81.742,354.576 82.268,354.625 82.268 C 354.675 82.268,354.193 81.742,353.555 81.098 C 352.918 80.455,352.355 79.928,352.306 79.928 C 352.256 79.928,352.737 80.455,353.375 81.098 M213.380 82.538 C 213.381 83.231,213.414 83.493,213.453 83.119 C 213.492 82.746,213.491 82.179,213.451 81.859 C 213.411 81.540,213.380 81.845,213.380 82.538 M291.311 85.824 L 291.352 90.279 291.404 85.905 C 291.442 82.695,291.510 81.565,291.660 81.657 C 291.786 81.735,291.815 81.704,291.736 81.576 C 291.345 80.943,291.272 81.671,291.311 85.824 M38.794 81.689 C 38.283 81.794,38.009 82.092,38.443 82.070 C 39.099 82.037,39.715 81.809,39.424 81.708 C 39.275 81.657,38.992 81.648,38.794 81.689 M362.736 82.538 C 363.274 83.083,363.755 83.528,363.804 83.528 C 363.854 83.528,363.454 83.083,362.916 82.538 C 362.379 81.994,361.898 81.548,361.848 81.548 C 361.799 81.548,362.198 81.994,362.736 82.538 M380.192 82.583 L 379.208 83.618 380.243 82.634 C 381.205 81.720,381.361 81.548,381.227 81.548 C 381.199 81.548,380.733 82.014,380.192 82.583 M39.874 81.908 C 39.808 82.015,40.004 82.083,40.358 82.076 C 40.855 82.065,40.894 82.037,40.594 81.908 C 40.106 81.698,40.004 81.698,39.874 81.908 M36.319 82.032 C 35.899 82.142,35.915 82.448,36.341 82.448 C 36.954 82.448,37.804 82.226,37.804 82.066 C 37.804 81.905,36.886 81.884,36.319 82.032 M41.314 82.088 C 41.253 82.187,41.319 82.268,41.461 82.268 C 41.603 82.268,41.993 82.312,42.327 82.366 C 42.918 82.462,42.915 82.457,42.214 82.189 C 41.351 81.859,41.449 81.870,41.314 82.088 M219.304 82.628 C 219.304 82.975,219.341 83.117,219.386 82.943 C 219.431 82.770,219.431 82.486,219.386 82.313 C 219.341 82.140,219.304 82.282,219.304 82.628 M34.293 82.492 C 33.416 82.708,32.869 82.925,32.043 83.384 C 31.697 83.577,31.190 83.827,30.918 83.941 C 30.646 84.054,30.423 84.215,30.423 84.299 C 30.423 84.382,30.484 84.421,30.558 84.386 C 30.742 84.298,31.496 83.976,32.043 83.752 C 32.291 83.650,33.005 83.356,33.630 83.098 C 34.256 82.839,34.924 82.628,35.115 82.628 C 35.307 82.628,35.464 82.547,35.464 82.448 C 35.464 82.240,35.284 82.247,34.293 82.492 M371.017 83.798 C 370.279 84.541,369.716 85.149,369.766 85.149 C 369.815 85.149,370.460 84.541,371.197 83.798 C 371.935 83.056,372.498 82.448,372.448 82.448 C 372.399 82.448,371.755 83.056,371.017 83.798 M356.526 84.428 C 357.213 85.122,357.817 85.689,357.866 85.689 C 357.916 85.689,357.393 85.122,356.706 84.428 C 356.018 83.735,355.415 83.168,355.365 83.168 C 355.316 83.168,355.838 83.735,356.526 84.428 M19.442 84.329 C 19.442 84.374,19.705 84.788,20.027 85.249 C 20.349 85.711,20.757 86.332,20.935 86.629 C 21.113 86.927,21.356 87.268,21.475 87.388 C 21.595 87.508,21.931 87.985,22.223 88.448 C 22.781 89.332,23.073 89.535,22.914 88.929 C 22.863 88.731,22.749 88.569,22.661 88.569 C 22.574 88.569,22.502 88.482,22.502 88.376 C 22.502 88.072,21.215 86.266,20.387 85.407 C 20.263 85.279,20.162 85.096,20.162 85.001 C 20.162 84.905,20.035 84.778,19.881 84.719 C 19.726 84.660,19.650 84.529,19.711 84.430 C 19.773 84.330,19.737 84.248,19.633 84.248 C 19.528 84.248,19.442 84.285,19.442 84.329 M29.786 84.620 C 29.720 84.726,29.710 84.856,29.763 84.908 C 29.892 85.037,30.243 84.810,30.243 84.598 C 30.243 84.368,29.932 84.383,29.786 84.620 M364.536 84.478 C 364.536 84.505,365.164 85.133,365.932 85.873 L 367.327 87.219 365.981 85.824 C 364.731 84.528,364.536 84.346,364.536 84.478 M376.952 86.004 L 375.788 87.219 377.003 86.054 C 377.671 85.413,378.218 84.866,378.218 84.839 C 378.218 84.706,378.035 84.875,376.952 86.004 M27.543 86.319 C 27.418 86.469,27.398 86.589,27.499 86.589 C 27.598 86.589,27.780 86.467,27.903 86.319 C 28.028 86.168,28.047 86.049,27.947 86.049 C 27.848 86.049,27.666 86.170,27.543 86.319 M368.189 86.773 C 367.772 87.167,367.492 87.489,367.567 87.489 C 367.642 87.489,368.020 87.165,368.407 86.769 C 369.311 85.842,369.172 85.845,368.189 86.773 M359.766 87.849 C 360.354 88.443,360.875 88.929,360.925 88.929 C 360.974 88.929,360.534 88.443,359.946 87.849 C 359.358 87.255,358.837 86.769,358.787 86.769 C 358.738 86.769,359.178 87.255,359.766 87.849 M223.357 87.076 C 223.580 87.119,223.945 87.119,224.167 87.076 C 224.390 87.033,224.208 86.998,223.762 86.998 C 223.317 86.998,223.135 87.033,223.357 87.076 M234.428 87.073 C 234.602 87.118,234.885 87.118,235.059 87.073 C 235.232 87.028,235.090 86.990,234.743 86.990 C 234.397 86.990,234.255 87.028,234.428 87.073 M24.925 88.998 L 24.651 89.547 25.197 89.024 C 25.834 88.414,25.817 88.449,25.471 88.449 C 25.321 88.449,25.076 88.696,24.925 88.998 M373.801 89.334 L 372.907 90.279 373.852 89.386 C 374.372 88.894,374.797 88.469,374.797 88.441 C 374.797 88.306,374.631 88.456,373.801 89.334 M216.472 90.009 C 216.959 90.504,217.399 90.909,217.448 90.909 C 217.498 90.909,217.139 90.504,216.652 90.009 C 216.164 89.514,215.725 89.109,215.675 89.109 C 215.626 89.109,215.984 89.514,216.472 90.009 M244.097 90.054 C 244.843 90.849,245.005 90.992,245.005 90.857 C 245.005 90.828,244.620 90.443,244.149 90.001 L 243.294 89.199 244.097 90.054 M23.329 89.919 C 23.955 90.457,23.984 90.460,24.365 90.039 C 24.620 89.758,24.624 89.709,24.393 89.709 C 24.244 89.709,24.122 89.822,24.122 89.961 C 24.122 90.150,23.991 90.120,23.600 89.841 C 22.873 89.324,22.697 89.375,23.329 89.919 M226.822 91.216 C 226.773 92.226,226.797 92.989,226.875 92.910 C 226.953 92.831,226.993 92.005,226.964 91.073 L 226.910 89.379 226.822 91.216 M54.574 90.287 C 54.781 90.637,54.989 90.885,55.037 90.837 C 55.123 90.752,54.410 89.649,54.269 89.649 C 54.230 89.649,54.367 89.936,54.574 90.287 M362.016 90.239 C 362.016 90.266,362.644 90.894,363.411 91.634 L 364.806 92.979 363.461 91.584 C 362.211 90.288,362.016 90.107,362.016 90.239 M55.646 92.038 C 55.944 92.612,55.986 92.634,55.986 92.218 C 55.986 92.015,55.862 91.800,55.711 91.742 C 55.481 91.654,55.470 91.701,55.646 92.038 M222.637 93.016 C 222.860 93.059,223.225 93.059,223.447 93.016 C 223.670 92.973,223.488 92.938,223.042 92.938 C 222.597 92.938,222.414 92.973,222.637 93.016 M288.074 93.013 C 288.247 93.059,288.531 93.059,288.704 93.013 C 288.877 92.968,288.735 92.931,288.389 92.931 C 288.042 92.931,287.901 92.968,288.074 93.013 M367.822 93.013 C 367.995 93.059,368.279 93.059,368.452 93.013 C 368.625 92.968,368.483 92.931,368.137 92.931 C 367.790 92.931,367.649 92.968,367.822 93.013 M56.429 93.789 C 56.695 94.780,56.943 95.229,57.223 95.224 C 57.483 95.219,57.481 95.191,57.201 94.979 C 57.027 94.847,56.883 94.587,56.880 94.400 C 56.877 94.212,56.747 93.897,56.591 93.699 C 56.316 93.349,56.312 93.352,56.429 93.789 M239.964 94.419 C 240.300 94.766,240.615 95.050,240.665 95.050 C 240.714 95.050,240.480 94.766,240.144 94.419 C 239.808 94.073,239.493 93.789,239.443 93.789 C 239.394 93.789,239.628 94.073,239.964 94.419 M57.326 97.480 C 57.409 97.678,57.515 98.064,57.562 98.337 C 57.609 98.611,57.714 98.876,57.796 98.926 C 58.055 99.086,57.737 97.675,57.450 97.391 C 57.205 97.149,57.192 97.158,57.326 97.480 M57.786 100.428 C 57.786 101.327,57.997 101.639,58.217 101.065 C 58.408 100.567,58.335 99.961,58.056 99.730 C 57.822 99.536,57.786 99.629,57.786 100.428 M57.715 101.935 C 57.426 103.021,57.246 103.957,57.246 104.368 C 57.246 104.639,57.080 105.296,56.878 105.828 C 56.676 106.360,56.544 106.886,56.586 106.998 C 56.627 107.109,56.721 106.958,56.795 106.661 C 56.869 106.364,57.051 106.023,57.200 105.904 C 57.349 105.785,57.423 105.562,57.364 105.409 C 57.305 105.256,57.344 105.131,57.451 105.131 C 57.557 105.131,57.600 105.014,57.545 104.872 C 57.491 104.730,57.533 104.585,57.640 104.549 C 57.771 104.506,57.752 104.351,57.585 104.082 C 57.401 103.785,57.390 103.645,57.543 103.550 C 57.765 103.412,58.086 101.710,57.891 101.710 C 57.827 101.710,57.748 101.811,57.715 101.935 M244.186 104.995 L 243.474 105.761 244.239 105.049 C 244.660 104.658,245.005 104.313,245.005 104.284 C 245.005 104.148,244.848 104.284,244.186 104.995 M55.797 108.566 C 55.566 108.999,55.741 109.304,55.993 108.906 C 56.169 108.626,56.224 108.191,56.082 108.191 C 56.036 108.191,55.908 108.360,55.797 108.566 M55.119 109.720 C 55.006 109.968,54.987 110.171,55.077 110.171 C 55.254 110.171,55.528 109.474,55.401 109.347 C 55.359 109.304,55.232 109.472,55.119 109.720 M53.456 112.107 C 52.556 113.045,52.071 113.722,52.684 113.186 C 52.882 113.013,53.140 112.871,53.258 112.871 C 53.376 112.871,53.565 112.669,53.678 112.421 C 53.791 112.174,53.942 111.971,54.013 111.971 C 54.085 111.971,54.186 111.809,54.238 111.611 C 54.359 111.147,54.405 111.118,53.456 112.107 M50.568 114.962 C 50.359 115.214,50.372 115.244,50.666 115.187 C 50.853 115.151,51.039 115.020,51.080 114.896 C 51.187 114.575,50.853 114.618,50.568 114.962 M49.505 115.702 C 48.911 116.111,48.750 116.450,49.208 116.326 C 49.476 116.253,50.321 115.423,50.215 115.335 C 50.171 115.298,49.851 115.463,49.505 115.702 M43.464 118.372 C 43.120 118.647,43.120 118.649,43.474 118.486 C 43.672 118.395,43.956 118.275,44.104 118.220 C 44.338 118.134,44.336 118.118,44.094 118.106 C 43.939 118.098,43.656 118.218,43.464 118.372 M43.753 119.907 C 43.863 120.114,43.989 120.247,44.033 120.203 C 44.159 120.077,43.904 119.532,43.719 119.532 C 43.627 119.532,43.642 119.701,43.753 119.907 M44.391 120.882 C 44.675 121.316,45.005 121.482,45.005 121.192 C 45.005 121.045,44.346 120.432,44.188 120.432 C 44.138 120.432,44.229 120.635,44.391 120.882 M45.043 121.706 C 45.206 122.141,46.417 123.994,46.621 124.120 C 46.893 124.288,46.606 123.640,46.229 123.233 C 46.050 123.041,45.905 122.778,45.905 122.648 C 45.905 122.518,45.824 122.412,45.725 122.412 C 45.626 122.412,45.545 122.301,45.545 122.164 C 45.545 122.028,45.408 121.805,45.241 121.669 C 44.978 121.456,44.951 121.461,45.043 121.706 M48.965 127.352 C 48.965 127.542,50.046 129.253,50.166 129.253 C 50.317 129.253,50.013 128.447,49.794 128.263 C 49.675 128.164,49.440 127.883,49.272 127.638 C 49.103 127.393,48.965 127.264,48.965 127.352 M52.298 132.364 C 52.472 132.639,52.659 132.819,52.715 132.764 C 52.770 132.709,52.628 132.483,52.399 132.263 L 51.982 131.863 52.298 132.364 M53.251 133.868 C 53.474 134.281,54.365 135.131,54.365 134.931 C 54.365 134.850,54.181 134.613,53.955 134.404 C 53.729 134.195,53.532 133.944,53.518 133.848 C 53.504 133.751,53.397 133.641,53.281 133.602 C 53.129 133.551,53.120 133.625,53.251 133.868 M55.815 137.444 C 55.818 137.682,56.320 138.340,56.421 138.238 C 56.465 138.194,56.346 137.957,56.157 137.711 C 55.968 137.465,55.814 137.345,55.815 137.444 M58.371 141.398 C 58.592 141.734,58.792 141.988,58.817 141.963 C 58.919 141.861,58.400 140.954,58.194 140.874 C 58.071 140.826,58.151 141.062,58.371 141.398 M59.050 142.169 C 59.057 142.413,59.758 143.210,59.762 142.979 C 59.764 142.856,59.604 142.592,59.406 142.394 C 59.208 142.196,59.048 142.095,59.050 142.169 M61.025 145.184 C 61.258 145.431,61.494 145.582,61.552 145.519 C 61.609 145.457,61.555 145.369,61.431 145.325 C 61.307 145.281,61.206 145.130,61.206 144.989 C 61.206 144.849,61.070 144.734,60.905 144.734 C 60.655 144.734,60.676 144.812,61.025 145.184 " stroke="none" fill="#ab7c52" fill-rule="evenodd"></path></g></svg>